<?xml version="1.0" encoding="UTF-8" ?>
<!DOCTYPE svg PUBLIC "-//W3C//DTD SVG 1.1//EN" "http://www.w3.org/Graphics/SVG/1.1/DTD/svg11.dtd">
<svg width="1000pt" height="1000pt" viewBox="0 0 1000 1000" version="1.1" xmlns="http://www.w3.org/2000/svg">
<g id="#ffffffff">
</g>
<g id="#124b80ff">
<path fill="#124b80" opacity="1.00" d=" M 339.79 272.74 C 387.62 238.02 446.97 219.66 506.04 221.15 C 548.49 222.01 590.70 232.91 628.20 252.84 C 680.40 280.38 723.20 325.26 748.22 378.72 C 754.32 391.68 759.38 405.14 763.37 418.90 C 772.61 419.08 781.87 418.60 791.09 419.17 C 806.96 420.66 820.37 434.94 820.72 450.90 C 820.78 480.27 820.74 509.65 820.74 539.03 C 820.68 555.93 805.86 571.05 788.97 571.46 C 766.59 571.55 744.21 571.47 721.83 571.50 C 735.20 532.30 738.12 489.58 729.92 448.97 C 722.30 410.64 704.77 374.37 679.60 344.48 C 656.24 316.63 626.33 294.30 592.95 279.90 C 553.22 262.65 508.66 256.92 465.83 263.22 C 414.02 270.64 365.13 296.27 329.36 334.43 C 295.15 370.52 272.93 417.77 267.17 467.17 C 261.89 511.11 269.22 556.55 288.45 596.43 C 303.74 628.41 326.43 656.79 354.18 678.83 C 387.07 705.10 427.17 722.16 468.90 727.69 C 473.84 718.49 482.86 711.53 493.17 709.58 C 508.08 706.35 524.40 714.26 531.16 727.93 C 538.62 741.91 534.89 760.63 522.60 770.65 C 510.85 780.93 492.14 781.66 479.61 772.36 C 473.90 768.35 469.66 762.52 467.09 756.08 C 428.99 751.28 391.98 738.07 359.57 717.47 C 306.65 684.16 266.37 631.40 248.37 571.50 C 235.60 571.42 222.83 571.63 210.06 571.40 C 193.89 570.49 179.89 556.21 179.30 540.03 C 179.19 513.70 179.28 487.37 179.25 461.04 C 179.33 454.69 178.69 448.15 180.87 442.06 C 184.93 429.17 197.44 419.49 210.99 419.00 C 219.53 418.79 228.07 418.99 236.62 418.90 C 253.39 360.46 290.42 308.19 339.79 272.74 Z" />
</g>
<g id="#0095d9ff">
<path fill="#0095d9" opacity="1.00" d=" M 433.96 312.04 C 471.90 298.31 514.14 296.87 552.96 307.85 C 586.38 317.22 617.11 335.84 641.01 361.00 C 666.78 387.97 684.57 422.50 691.35 459.20 C 700.12 505.48 691.49 554.85 667.11 595.20 C 675.30 625.77 683.48 656.34 691.68 686.91 C 661.11 678.74 630.54 670.52 599.96 662.35 C 566.26 682.64 526.27 692.13 487.04 689.48 C 454.19 687.39 421.93 676.71 394.32 658.77 C 362.87 638.47 337.48 608.91 322.22 574.72 C 306.18 539.08 301.46 498.56 308.48 460.14 C 314.18 428.46 328.04 398.31 348.25 373.25 C 370.51 345.53 400.49 324.06 433.96 312.04 M 415.55 356.52 C 385.71 374.65 361.99 402.65 349.11 435.11 C 335.49 469.05 333.92 507.63 344.63 542.60 C 354.34 574.70 374.39 603.53 400.99 623.94 C 427.46 644.45 460.43 656.38 493.90 657.52 C 529.75 659.01 565.87 648.00 594.94 626.99 C 611.70 631.47 628.45 635.96 645.20 640.46 C 640.75 623.70 636.25 606.95 631.74 590.21 C 638.06 581.35 643.61 571.92 648.07 561.98 C 663.47 528.12 666.55 488.91 656.84 453.02 C 648.32 421.06 629.64 391.96 604.27 370.76 C 579.24 349.68 547.69 336.46 515.09 333.54 C 480.58 330.25 445.09 338.38 415.55 356.52 Z" />
<path fill="#0095d9" opacity="1.00" d=" M 402.39 462.49 C 417.52 458.36 434.70 466.42 441.20 480.68 C 448.26 494.84 443.56 513.49 430.59 522.55 C 417.54 532.47 397.42 530.69 386.32 518.62 C 375.10 507.38 373.80 488.05 383.36 475.38 C 387.96 469.05 394.80 464.39 402.39 462.49 Z" />
<path fill="#0095d9" opacity="1.00" d=" M 491.46 462.55 C 506.62 458.30 523.90 466.31 530.46 480.60 C 537.49 494.62 532.98 513.12 520.25 522.29 C 512.03 528.52 500.88 530.60 490.97 527.79 C 480.31 524.94 471.41 516.47 467.97 506.00 C 463.85 494.06 467.15 479.98 476.26 471.20 C 480.46 467.05 485.75 464.02 491.46 462.55 Z" />
<path fill="#0095d9" opacity="1.00" d=" M 580.38 462.64 C 596.25 457.96 614.53 466.93 620.52 482.35 C 626.74 496.67 621.28 514.77 608.18 523.26 C 595.00 532.50 575.39 530.31 564.62 518.32 C 553.20 506.61 552.49 486.49 563.03 473.98 C 567.44 468.51 573.60 464.49 580.38 462.64 Z" />
</g>
</svg>
