<?xml version="1.0" encoding="UTF-8"?>
<svg id="Layer_1" data-name="Layer 1" xmlns="http://www.w3.org/2000/svg" viewBox="0 0 302.19 525.12">
  <defs>
    <style>
      .cls-1 {
        fill: #c1272d;
        stroke-width: 0px;
      }
    </style>
  </defs>
  <path class="cls-1" d="m99.28,19.28c8.45-6.53,17.09-12.8,25.58-19.28,1.2,10.31,3.48,20.47,4.4,30.82.24,3.71.1,8.01-2.77,10.78-2.65,2.66-5.81,4.75-8.81,6.99-7.18,5.17-13.57,11.31-19.75,17.62-3.04-9.68-4.89-19.8-4.94-29.96.26-6.04,1.11-13.02,6.29-16.97Z"/>
  <path class="cls-1" d="m95.8,88.65c5.19-17.13,19.5-30.07,35.24-37.66-6.56,17.03-3.18,35.93,2.59,52.68,11.31,31.39,30.15,59.21,47.73,87.32,12.24,19.02,24.45,38.17,34.23,58.6,3.95,8.8,8.15,17.77,9.12,27.49,1.17,8.7-.02,17.54-2.19,25.99-3.55,14.24-10.26,27.44-17.35,40.2-13.24,22.44-29.47,42.98-46.78,62.39-9.28,9.97-18.79,19.78-29.07,28.74-4.76,4-9.38,8.52-15.42,10.51,4.32-6.49,10.35-11.56,15.41-17.44,19.57-20.8,37.23-43.73,49.8-69.48,6.64-13.45,11.19-27.89,13.68-42.66,1.65-7.98.69-16.25-1.29-24.07-3.03-11.44-8.07-22.24-13.91-32.49-10.4-19.02-23.41-36.39-35.54-54.29-14.5-20.65-29.06-41.52-39.35-64.66-7.02-15.86-11.84-34-6.9-51.17Z"/>
  <path class="cls-1" d="m120.89,247.05c7.52-6.27,14.87-13.17,24.12-16.8-14.71,16.89-29.09,34.3-40.1,53.88-2.65,5.12-5.35,10.4-6.35,16.13-.5,9.24,2.57,18.2,5.87,26.7,6.32,15.01,14.35,29.46,24.94,41.9,2.17,2.63,4.99,4.66,8.09,6.05,1.95-2.06,2.69-4.89,1.85-7.62-2.68-11.32-10.24-20.54-15.81-30.47,6.64-11.25,13.67-22.28,20.42-33.47,3.87,10.11,7.58,20.28,11.65,30.31,2.11,4.9,3.93,9.99,7.04,14.37,4.36-8.42,2.48-18.25.08-26.94-6.4-22.55-18.53-42.79-29.18-63.48,5.89-7.91,11.8-15.81,17.69-23.71,10.7,16.81,20.73,34.18,28.16,52.72,2.4,6.3,4.77,12.8,4.86,19.63.22,8-1.14,15.97-3.36,23.63-5.11,17.08-13.59,32.92-23.02,47.97-11.56,18.63-24.99,36.06-39.68,52.32-3.39,3.49-6.6,7.38-11.07,9.55,4.67-9.6,9.53-19.12,13.86-28.87-14.84-23.36-30.24-46.71-40.93-72.37-6.08-13.74-3.51-29.58,2.68-42.79,8.87-18.84,22.99-34.66,38.19-48.64Z"/>
  <path class="cls-1" d="m106.53,300.83c6.92-11.42,13.77-22.88,20.78-34.25,4.07,10.12,8.05,20.28,12.03,30.44-6.85,10.78-13.66,21.6-20.49,32.4-4.36-9.42-8.29-19.03-12.32-28.59Z"/>
  <path class="cls-1" d="m193.26,372.31c4.42-6.95,9.5-13.46,13.72-20.54,2.7,5.98,5.51,11.92,8.18,17.92-5.17,6.65-10.46,13.2-15.74,19.76-2.04-5.72-4.11-11.43-6.16-17.14Z"/>
  <path class="cls-1" d="m174.45,398.55c4.86-6.8,9.97-13.43,14.71-20.31,2.43,6.01,4.93,11.99,7.33,18.01-5.55,6.58-11.14,13.14-16.67,19.73-1.81-5.8-3.57-11.62-5.37-17.43Z"/>
</svg>