<?xml version="1.0" encoding="utf-8"?>
<!-- Generator: Adobe Illustrator 27.8.1, SVG Export Plug-In . SVG Version: 6.00 Build 0)  -->
<svg version="1.1" id="Layer_1" xmlns="http://www.w3.org/2000/svg" xmlns:xlink="http://www.w3.org/1999/xlink" x="0px" y="0px"
	 viewBox="0 0 800 1000" style="enable-background:new 0 0 800 1000;" xml:space="preserve">
<style type="text/css">
	.st0{fill:#C1272D;}
</style>
<g>
	<g>
		<path class="st0" d="M323.74,159.76c12.49-9.65,25.27-18.92,37.82-28.5c1.77,15.24,5.14,30.26,6.5,45.56
			c0.35,5.48,0.15,11.84-4.1,15.94c-3.92,3.93-8.59,7.02-13.02,10.33c-10.61,7.64-20.06,16.72-29.2,26.05
			c-4.49-14.31-7.23-29.27-7.3-44.29C314.83,175.91,316.08,165.6,323.74,159.76z"/>
		<path class="st0" d="M318.6,262.31c7.67-25.32,28.83-44.46,52.1-55.68c-9.7,25.18-4.7,53.12,3.83,77.88
			c16.72,46.41,44.57,87.54,70.56,129.09c18.1,28.12,36.15,56.43,50.61,86.63c5.84,13.01,12.05,26.27,13.48,40.64
			c1.73,12.86-0.03,25.93-3.24,38.42c-5.25,21.05-15.17,40.57-25.65,59.43c-19.57,33.17-43.57,63.54-69.16,92.24
			c-13.72,14.74-27.78,29.24-42.98,42.49c-7.04,5.91-13.87,12.6-22.8,15.54c6.39-9.59,15.3-17.09,22.78-25.78
			c28.93-30.75,55.04-64.65,73.62-102.72c9.82-19.88,16.54-41.23,20.22-63.07c2.44-11.8,1.02-24.02-1.91-35.58
			c-4.48-16.91-11.93-32.88-20.56-48.03c-15.38-28.12-34.61-53.8-52.54-80.26c-21.44-30.53-42.96-61.38-58.17-95.59
			C318.42,314.51,311.29,287.7,318.6,262.31z"/>
		<path class="st0" d="M355.69,496.49c11.12-9.27,21.98-19.47,35.66-24.84c-21.75,24.97-43.01,50.71-59.28,79.66
			c-3.92,7.57-7.91,15.38-9.39,23.85c-0.74,13.66,3.8,26.91,8.68,39.47c9.34,22.19,21.21,43.55,36.87,61.94
			c3.21,3.89,7.38,6.89,11.96,8.94c2.88-3.05,3.98-7.23,2.74-11.27c-3.96-16.74-15.14-30.37-23.37-45.05
			c9.82-16.63,20.21-32.94,30.19-49.48c5.72,14.95,11.21,29.98,17.22,44.81c3.12,7.24,5.81,14.77,10.41,21.24
			c6.45-12.45,3.67-26.98,0.12-39.83c-9.46-33.34-27.39-63.26-43.14-93.85c8.71-11.69,17.44-23.37,26.15-35.05
			c15.82,24.85,30.65,50.53,41.63,77.94c3.55,9.31,7.05,18.92,7.18,29.02c0.33,11.83-1.69,23.61-4.97,34.93
			c-7.55,25.25-20.09,48.67-34.03,70.92c-17.09,27.54-36.94,53.31-58.66,77.35c-5.01,5.16-9.76,10.91-16.37,14.12
			c6.9-14.19,14.09-28.27,20.49-42.68c-21.94-34.54-44.71-69.06-60.51-106.99c-8.99-20.31-5.19-43.73,3.96-63.26
			C312.34,540.54,333.22,517.16,355.69,496.49z"/>
		<path class="st0" d="M334.46,575.99c10.23-16.88,20.36-33.83,30.72-50.63c6.02,14.96,11.9,29.98,17.78,45
			c-10.13,15.94-20.19,31.93-30.29,47.9C346.23,604.34,340.42,590.13,334.46,575.99z"/>
		<path class="st0" d="M462.68,681.67c6.53-10.27,14.04-19.9,20.28-30.37c3.99,8.84,8.15,17.62,12.09,26.49
			c-7.64,9.83-15.46,19.51-23.27,29.21C468.77,698.55,465.71,690.11,462.68,681.67z"/>
		<path class="st0" d="M434.87,720.46c7.18-10.05,14.74-19.85,21.75-30.03c3.59,8.89,7.29,17.73,10.84,26.63
			c-8.21,9.73-16.47,19.43-24.64,29.17C440.14,737.66,437.53,729.05,434.87,720.46z"/>
	</g>
	<g>
		<path class="st0" d="M149.66,818.28h44.93v10.44l-23.54,27.22h24.05v12.82h-46.3v-10.44l23.54-27.22h-22.68V818.28z"/>
		<path class="st0" d="M217.12,818.28h17.14l20.52,50.47h-17.78l-11.81-33.84l-12.24,33.84h-17.14L217.12,818.28z M210.21,849.67
			h28.94v11.95h-28.94V849.67z"/>
		<path class="st0" d="M257.66,818.28h16.7v50.47h-16.7V818.28z"/>
		<path class="st0" d="M281.56,818.28h13.97l24.41,31.68l-4.46,1.51v-33.19h15.12v50.47h-13.97l-24.34-31.54l4.46-1.51v33.05h-15.19
			V818.28z"/>
		<path class="st0" d="M353.99,818.28h45.43v13.18h-14.4v37.3h-16.7v-37.3h-14.33V818.28z"/>
		<path class="st0" d="M427.79,818.28c6.86,0,12.17,1.57,15.91,4.72c3.74,3.14,5.62,7.6,5.62,13.36c0,6.1-1.87,10.84-5.62,14.22
			c-3.74,3.38-9.05,5.08-15.91,5.08h-7.7v13.1h-16.7v-50.47H427.79z M427.79,842.97c1.82,0,3.23-0.54,4.21-1.62
			c0.98-1.08,1.48-2.58,1.48-4.5c0-1.87-0.49-3.32-1.48-4.36c-0.98-1.03-2.39-1.55-4.21-1.55h-7.7v12.02H427.79z M423.54,849.67
			h16.13l11.59,19.08H432.4L423.54,849.67z"/>
		<path class="st0" d="M472.58,818.28h17.14l20.52,50.47h-17.78l-11.81-33.84l-12.24,33.84h-17.14L472.58,818.28z M465.66,849.67
			h28.94v11.95h-28.94V849.67z"/>
		<path class="st0" d="M504.83,818.28h17.86l10.44,33.12l10.37-33.12h17.06l-19.3,50.47h-17.28L504.83,818.28z"/>
		<path class="st0" d="M563.8,818.28h42.7v12.67H580.5v6.19h23.62v12.67H580.5v6.26h26.64v12.67H563.8V818.28z"/>
		<path class="st0" d="M613.48,818.28h16.7v36.58h21.02v13.9h-37.73V818.28z"/>
	</g>
</g>
</svg>
